<svg xmlns="http://www.w3.org/2000/svg" viewBox="3329 148 101.5 133.219">
  <defs>
    <style>
      .cls-1 {
        fill: #572835;
      }
    </style>
  </defs>
  <path id="ic_https_24px" class="cls-1" d="M92.813,45.406H86.469V32.719a31.719,31.719,0,0,0-63.437,0V45.406H16.688A12.725,12.725,0,0,0,4,58.094v63.438a12.725,12.725,0,0,0,12.688,12.688H92.813A12.725,12.725,0,0,0,105.5,121.531V58.094A12.725,12.725,0,0,0,92.813,45.406ZM54.75,102.5A12.688,12.688,0,1,1,67.438,89.813,12.725,12.725,0,0,1,54.75,102.5ZM74.416,45.406H35.084V32.719a19.666,19.666,0,0,1,39.331,0Z" transform="translate(3325 147)"/>
</svg>
