<svg xmlns="http://www.w3.org/2000/svg" viewBox="3519 430 276.038 362.3">
  <defs>
    <style>
      .cls-1 {
        fill: #572835;
      }
    </style>
  </defs>
  <path id="ic_lock_outline_24px" class="cls-1" d="M142.019,277.038a34.5,34.5,0,1,0-34.5-34.5A34.606,34.606,0,0,0,142.019,277.038ZM245.533,121.767H228.281v-34.5a86.262,86.262,0,0,0-172.524,0v34.5H38.5A34.606,34.606,0,0,0,4,156.271V328.8a34.606,34.606,0,0,0,34.5,34.5H245.533a34.606,34.606,0,0,0,34.5-34.5V156.271A34.606,34.606,0,0,0,245.533,121.767Zm-157-34.5a53.482,53.482,0,0,1,106.965,0v34.5H88.537Zm157,241.533H38.5V156.271H245.533Z" transform="translate(3515 429)"/>
</svg>
