<svg xmlns="http://www.w3.org/2000/svg" viewBox="3767 237 287.238 377">
  <defs>
    <style>
      .cls-1 {
        fill: #572835;
      }
    </style>
  </defs>
  <path id="ic_lock_open_24px" class="cls-1" d="M147.619,288.238a35.9,35.9,0,1,0-35.9-35.9A36.01,36.01,0,0,0,147.619,288.238ZM255.333,126.667H237.381v-35.9a89.762,89.762,0,0,0-179.524,0h34.11a55.652,55.652,0,0,1,111.3,0v35.9H39.9A36.01,36.01,0,0,0,4,162.571V342.1A36.01,36.01,0,0,0,39.9,378H255.333a36.01,36.01,0,0,0,35.9-35.9V162.571A36.01,36.01,0,0,0,255.333,126.667Zm0,215.429H39.9V162.571H255.333Z" transform="translate(3763 236)"/>
</svg>
